<svg id="visual" viewBox="0 0 900 250" width="900" height="250" xmlns="http://www.w3.org/2000/svg" xmlns:xlink="http://www.w3.org/1999/xlink" version="1.1"><rect x="0" y="0" width="900" height="250" fill="#15023a"></rect><path d="M0 195L21.5 186.5C43 178 86 161 128.8 160C171.7 159 214.3 174 257.2 174.2C300 174.3 343 159.7 385.8 155.3C428.7 151 471.3 157 514.2 156.8C557 156.7 600 150.3 642.8 156.8C685.7 163.3 728.3 182.7 771.2 188.8C814 195 857 188 878.5 184.5L900 181L900 0L878.5 0C857 0 814 0 771.2 0C728.3 0 685.7 0 642.8 0C600 0 557 0 514.2 0C471.3 0 428.7 0 385.8 0C343 0 300 0 257.2 0C214.3 0 171.7 0 128.8 0C86 0 43 0 21.5 0L0 0Z" fill="#15023a"></path><path d="M0 126L21.5 126.7C43 127.3 86 128.7 128.8 130.7C171.7 132.7 214.3 135.3 257.2 138.3C300 141.3 343 144.7 385.8 147.5C428.7 150.3 471.3 152.7 514.2 156.2C557 159.7 600 164.3 642.8 160.3C685.7 156.3 728.3 143.7 771.2 144.3C814 145 857 159 878.5 166L900 173L900 0L878.5 0C857 0 814 0 771.2 0C728.3 0 685.7 0 642.8 0C600 0 557 0 514.2 0C471.3 0 428.7 0 385.8 0C343 0 300 0 257.2 0C214.3 0 171.7 0 128.8 0C86 0 43 0 21.5 0L0 0Z" fill="#412f5e"></path><path d="M0 124L21.5 127.2C43 130.3 86 136.7 128.8 139.2C171.7 141.7 214.3 140.3 257.2 132.7C300 125 343 111 385.8 106.8C428.7 102.7 471.3 108.3 514.2 114.3C557 120.3 600 126.7 642.8 130.2C685.7 133.7 728.3 134.3 771.2 128.8C814 123.3 857 111.7 878.5 105.8L900 100L900 0L878.5 0C857 0 814 0 771.2 0C728.3 0 685.7 0 642.8 0C600 0 557 0 514.2 0C471.3 0 428.7 0 385.8 0C343 0 300 0 257.2 0C214.3 0 171.7 0 128.8 0C86 0 43 0 21.5 0L0 0Z" fill="#6e5e84"></path><path d="M0 103L21.5 97.3C43 91.7 86 80.3 128.8 77.5C171.7 74.7 214.3 80.3 257.2 85.5C300 90.7 343 95.3 385.8 99.5C428.7 103.7 471.3 107.3 514.2 109C557 110.7 600 110.3 642.8 109.7C685.7 109 728.3 108 771.2 101.8C814 95.7 857 84.3 878.5 78.7L900 73L900 0L878.5 0C857 0 814 0 771.2 0C728.3 0 685.7 0 642.8 0C600 0 557 0 514.2 0C471.3 0 428.7 0 385.8 0C343 0 300 0 257.2 0C214.3 0 171.7 0 128.8 0C86 0 43 0 21.5 0L0 0Z" fill="#9c91ac"></path><path d="M0 83L21.5 79.5C43 76 86 69 128.8 62.5C171.7 56 214.3 50 257.2 50.3C300 50.7 343 57.3 385.8 61.7C428.7 66 471.3 68 514.2 69C557 70 600 70 642.8 66.3C685.7 62.7 728.3 55.3 771.2 57.3C814 59.3 857 70.7 878.5 76.3L900 82L900 0L878.5 0C857 0 814 0 771.2 0C728.3 0 685.7 0 642.8 0C600 0 557 0 514.2 0C471.3 0 428.7 0 385.8 0C343 0 300 0 257.2 0C214.3 0 171.7 0 128.8 0C86 0 43 0 21.5 0L0 0Z" fill="#cdc6d5"></path><path d="M0 24L21.5 23.5C43 23 86 22 128.8 24.2C171.7 26.3 214.3 31.7 257.2 32C300 32.3 343 27.7 385.8 27.8C428.7 28 471.3 33 514.2 33.8C557 34.7 600 31.3 642.8 33.5C685.7 35.7 728.3 43.3 771.2 42C814 40.7 857 30.3 878.5 25.2L900 20L900 0L878.5 0C857 0 814 0 771.2 0C728.3 0 685.7 0 642.8 0C600 0 557 0 514.2 0C471.3 0 428.7 0 385.8 0C343 0 300 0 257.2 0C214.3 0 171.7 0 128.8 0C86 0 43 0 21.5 0L0 0Z" fill="#ffffff"></path></svg>