<svg width="900" height="250" xmlns="http://www.w3.org/2000/svg"><path fill="#15023a" d="M0 0h900v250H0z"/><path d="M0 195l22-8c21-9 64-26 107-27s85 14 128 14 86-14 129-19c43-4 85 2 128 2s86-7 129 0c43 6 85 26 128 32s86-1 108-4l21-4V0H0z" fill="#15023a"/><path d="M0 126l22 1a6206 6206 0 01235 11l129 10 128 8c43 4 86 8 129 4s85-16 128-16c43 1 86 15 108 22l21 7V0H0z" fill="#412f5e"/><path d="M0 124l22 3c21 3 64 10 107 12 43 3 85 1 128-6 43-8 86-22 129-26s85 1 128 7 86 13 129 16a612 612 0 00236-24l21-6V0H0z" fill="#6e5e84"/><path d="M0 103l22-6c21-5 64-17 107-19 43-3 85 2 128 8a5611 5611 0 00257 23 2397 2397 0 00257-7c43-6 86-18 108-23l21-6V0H0z" fill="#9c91ac"/><path d="M0 83l22-3 107-17c43-7 85-13 128-13 43 1 86 7 129 12a1674 1674 0 00257 4c43-3 85-11 128-9s86 14 108 19l21 6V0H0z" fill="#cdc6d5"/><path d="M0 24h22c21-1 64-2 107 0s85 8 128 8 86-4 129-4 85 5 128 6 86-3 129 0c43 2 85 9 128 8s86-12 108-17l21-5V0H0z" fill="#fff"/></svg>